# xmcd
#
# Track frame offsets:
#	150
#	15534
#	45163
#	72587
#	80712
#	105462
#	120316
#	138701
#
# Disc length: 2035 seconds
#
# Revision: 0
# Processed by: cddbd v1.5.2PL0 Copyright (c) Steve Scherf et al.
# Submitted via: EZCDAudioConverter 3.0.7.1
#
DISCID=6307f108
DTITLE=The Chambers Brothers - Feelin' The Blues
DYEAR=1970
DGENRE=Rhythm And Blues
TTITLE0=Girls, We Love You
TTITLE1=I Got A Woman
TTITLE2=House Of The Rising Sun
TTITLE3=Don't Lose Your Cool
TTITLE4=Just A Closer Walk With Thee
TTITLE5=Blues Get Off My Shoulder
TTITLE6=Travel On My Way
TTITLE7=Undecided
EXTD=
EXTT0=
EXTT1=
EXTT2=
EXTT3=
EXTT4=
EXTT5=
EXTT6=
EXTT7=
PLAYORDER=
